<?xml version="1.0" encoding="utf-8"?>
<!-- Generated by IcoMoon.io -->
<!DOCTYPE svg PUBLIC "-//W3C//DTD SVG 1.1//EN" "http://www.w3.org/Graphics/SVG/1.1/DTD/svg11.dtd">
<svg version="1.1" xmlns="http://www.w3.org/2000/svg" xmlns:xlink="http://www.w3.org/1999/xlink" width="52" height="56" viewBox="0 0 52 56">
<path fill="#444444" d="M45.5 38q0-1.25-0.875-2.125l-6.5-6.5q-0.875-0.875-2.125-0.875-1.313 0-2.25 1 0.094 0.094 0.594 0.578t0.672 0.672 0.469 0.594 0.406 0.797 0.109 0.859q0 1.25-0.875 2.125t-2.125 0.875q-0.469 0-0.859-0.109t-0.797-0.406-0.594-0.469-0.672-0.672-0.578-0.594q-1.031 0.969-1.031 2.281 0 1.25 0.875 2.125l6.437 6.469q0.844 0.844 2.125 0.844 1.25 0 2.125-0.812l4.594-4.563q0.875-0.875 0.875-2.094zM23.531 15.969q0-1.25-0.875-2.125l-6.437-6.469q-0.875-0.875-2.125-0.875-1.219 0-2.125 0.844l-4.594 4.563q-0.875 0.875-0.875 2.094 0 1.25 0.875 2.125l6.5 6.5q0.844 0.844 2.125 0.844 1.313 0 2.25-0.969-0.094-0.094-0.594-0.578t-0.672-0.672-0.469-0.594-0.406-0.797-0.109-0.859q0-1.25 0.875-2.125t2.125-0.875q0.469 0 0.859 0.109t0.797 0.406 0.594 0.469 0.672 0.672 0.578 0.594q1.031-0.969 1.031-2.281zM51.5 38q0 3.75-2.656 6.344l-4.594 4.563q-2.594 2.594-6.344 2.594-3.781 0-6.375-2.656l-6.437-6.469q-2.594-2.594-2.594-6.344 0-3.844 2.75-6.531l-2.75-2.75q-2.688 2.75-6.5 2.75-3.75 0-6.375-2.625l-6.5-6.5q-2.625-2.625-2.625-6.375t2.656-6.344l4.594-4.563q2.594-2.594 6.344-2.594 3.781 0 6.375 2.656l6.437 6.469q2.594 2.594 2.594 6.344 0 3.844-2.75 6.531l2.75 2.75q2.688-2.75 6.5-2.75 3.75 0 6.375 2.625l6.5 6.5q2.625 2.625 2.625 6.375z"></path>
</svg>
