<?xml version="1.0" encoding="utf-8"?>
<!-- Generator: Adobe Illustrator 17.0.0, SVG Export Plug-In . SVG Version: 6.00 Build 0)  -->
<!DOCTYPE svg PUBLIC "-//W3C//DTD SVG 1.1//EN" "http://www.w3.org/Graphics/SVG/1.1/DTD/svg11.dtd" [
	<!ENTITY ns_flows "http://ns.adobe.com/Flows/1.0/">
	<!ENTITY ns_extend "http://ns.adobe.com/Extensibility/1.0/">
	<!ENTITY ns_ai "http://ns.adobe.com/AdobeIllustrator/10.0/">
	<!ENTITY ns_graphs "http://ns.adobe.com/Graphs/1.0/">
]>
<svg version="1.1" id="controls.fw-Page_x25_201" xmlns:x="&ns_extend;" xmlns:i="&ns_ai;" xmlns:graph="&ns_graphs;"
	 xmlns="http://www.w3.org/2000/svg" xmlns:xlink="http://www.w3.org/1999/xlink" xmlns:a="http://ns.adobe.com/AdobeSVGViewerExtensions/3.0/"
	 x="0px" y="0px" width="144px" height="32px" viewBox="0 0 144 32" enable-background="new 0 0 144 32" xml:space="preserve">
<g id="BG">
</g>
<g id="controls">
	<path id="Line" fill="none" stroke="#FFFFFF" stroke-linecap="round" d="M98.5,7.5h11"/>
	<path id="Line2" fill="none" stroke="#FFFFFF" stroke-linecap="round" d="M98.5,3.5h10"/>
	<path id="Line3" fill="none" stroke="#FFFFFF" stroke-linecap="round" d="M98.5,11.5h10"/>
	<circle fill="#FFFFFF" cx="104.313" cy="7.5" r="1.5"/>
	<circle fill="#FFFFFF" cx="108.479" cy="3.583" r="1.5"/>
	<circle fill="#FFFFFF" cx="108.479" cy="11.5" r="1.5"/>
</g>
<g id="backlight">
	<g id="off">
		<rect x="83" y="21" fill="#333333" stroke="#FFFFFF" stroke-linejoin="round" width="10" height="6"/>
	</g>
	<g id="on">
		
			<radialGradient id="Ellipse4_1_" cx="-502.11" cy="67.884" r="0.5" gradientTransform="matrix(14 0 0 -10 7117.54 686.84)" gradientUnits="userSpaceOnUse">
			<stop  offset="0" style="stop-color:#FFFFFF"/>
			<stop  offset="1" style="stop-color:#F2F2F2;stop-opacity:0.2"/>
			<a:midPointStop  offset="0" style="stop-color:#FFFFFF"/>
			<a:midPointStop  offset="0.5" style="stop-color:#FFFFFF"/>
			<a:midPointStop  offset="1" style="stop-color:#F2F2F2;stop-opacity:0.2"/>
		</radialGradient>
		<path id="Ellipse4" fill="url(#Ellipse4_1_)" d="M81,8c0-2.761,3.134-5,7-5s7,2.239,7,5s-3.134,5-7,5S81,10.762,81,8z"/>
		<rect x="83" y="5" fill="#333333" stroke="#FFFFFF" stroke-linecap="round" stroke-linejoin="round" width="10" height="6"/>
	</g>
</g>
<g id="loop">
	<g id="on2">
		<path fill="#FFFFFF" d="M73.795,4.205C75.215,4.878,76.2,6.323,76.2,8c0,2.32-1.88,4.2-4.2,4.2s-4.2-1.88-4.2-4.2
			c0-1.677,0.984-3.122,2.405-3.795l-1.33-1.33C67.15,3.929,66,5.831,66,8c0,3.314,2.686,6,6,6s6-2.686,6-6
			c0-2.169-1.15-4.071-2.875-5.125L73.795,4.205z"/>
		<path fill="#FFFFFF" d="M71,2h-5l5,5V2z"/>
	</g>
	<g id="off2">
		<path fill="#A8A8B7" d="M73.795,20.205C75.215,20.878,76.2,22.323,76.2,24c0,2.32-1.88,4.2-4.2,4.2s-4.2-1.88-4.2-4.2
			c0-1.677,0.984-3.122,2.405-3.795l-1.33-1.33C67.15,19.929,66,21.831,66,24c0,3.314,2.686,6,6,6s6-2.686,6-6
			c0-2.169-1.15-4.071-2.875-5.125L73.795,20.205z"/>
		<path fill="#A8A8B7" d="M71,18h-5l5,5V18z"/>
	</g>
</g>
<g id="cc">
	<rect x="49" y="2" display="none" fill="none" stroke="#B0B0B0" width="14" height="12"/>
	<text transform="matrix(1 0 0 1 51 27)" fill="#FFFFFF" font-family="'ArialMT'" font-size="10">cc</text>
	<rect x="50.262" y="3.081" fill="none" stroke="#FFFFFF" stroke-linejoin="round" width="11.477" height="9.837"/>
	<path fill="none" stroke="#FFFFFF" stroke-linecap="round" d="M60,6.447c-4-1.125-4,4.5,0,3"/>
	<path fill="none" stroke="#FFFFFF" stroke-linecap="round" d="M55,6.447c-4-1.125-4,4.5,0,3"/>
	<polyline fill="none" points="49,14 49,2 63,2 	"/>
</g>
<g id="volume">
	<g id="no_x25_20sound">
		<path fill="#FFFFFF" d="M17.542,5C17.875,5,22,5,22,5v6.063c0,0-4.271,0-4.5,0s-0.5-0.187-0.5-0.5s0-4.763,0-5.021
			C17,5.283,17.209,5,17.542,5z"/>
		<path fill="#FFFFFF" d="M21,5c0,0,2.848-2.125,3.278-2.458S25,2.188,25,2.542s0,10.563,0,10.896s-0.301,0.341-0.762,0.003
			C23.778,13.102,21,11.063,21,11.063V5z"/>
	</g>
	<g id="sound_x25_20bars">
		<path fill="#FFFFFF" d="M17.542,21.013c0.333,0,4.458,0,4.458,0v6.063c0,0-4.271,0-4.5,0s-0.5-0.187-0.5-0.5
			c0-0.313,0-4.763,0-5.021S17.209,21.013,17.542,21.013z"/>
		<path fill="#FFFFFF" d="M21,21.013c0,0,2.848-2.125,3.278-2.458c0.43-0.333,0.722-0.354,0.722,0c0,0.354,0,10.563,0,10.896
			c0,0.333-0.301,0.341-0.762,0.003C23.778,29.115,21,27.075,21,27.075V21.013z"/>
		<path fill="none" stroke="#FFFFFF" stroke-linecap="round" d="M26,21.008c0,0,2.041-0.312,1.999,2.992
			C27.958,27.304,26,26.992,26,26.992"/>
	</g>
</g>
<g id="play_x2F_pause">
	<g id="play">
		<linearGradient id="Polygon_1_" gradientUnits="userSpaceOnUse" x1="3" y1="8.5129" x2="13.4201" y2="8.5129">
			<stop  offset="0" style="stop-color:#FFFFFF"/>
			<stop  offset="1" style="stop-color:#FFFFFF"/>
			<a:midPointStop  offset="0" style="stop-color:#FFFFFF"/>
			<a:midPointStop  offset="0.5" style="stop-color:#FFFFFF"/>
			<a:midPointStop  offset="1" style="stop-color:#FFFFFF"/>
		</linearGradient>
		<path id="Polygon" fill="url(#Polygon_1_)" d="M12.813,9.093L4.3,13.35C3.688,13.638,3,13.688,3,13V4
			c0-0.594,0.656-0.635,1.275-0.362l8.523,4.261C13.625,8.394,13.625,8.625,12.813,9.093z"/>
	</g>
	<g id="pause">
		<path fill="#FFFFFF" d="M3.469,18c0.234,0,1.783,0,2.047,0S6,18.219,6,18.469c0,0.25,0,10.749,0,11.031S5.799,30,5.516,30
			c-0.282,0-1.766,0-2.048,0S3,29.765,3,29.5s0-10.766,0-11.031C3,18.203,3.235,18,3.469,18z"/>
		<path fill="#FFFFFF" d="M10.469,18c0.234,0,1.783,0,2.047,0C12.781,18,13,18.219,13,18.469c0,0.25,0,10.749,0,11.031
			S12.799,30,12.516,30s-1.766,0-2.048,0S10,29.765,10,29.5s0-10.766,0-11.031C10,18.203,10.235,18,10.469,18z"/>
	</g>
</g>
<g id="fullscreen">
	<g id="enter_x25_201">
		<polygon fill="#FFFFFF" points="34,2 34,7 39,2 		"/>
		<path fill="#FFFFFF" d="M34,14h5l-5-5V14z"/>
		<path fill="#FFFFFF" d="M46,2h-5l5,5V2z"/>
		<path fill="#FFFFFF" d="M46,14h-5l5-5V14z"/>
	</g>
	<g id="exit">
		<path fill="#FFFFFF" d="M42,22h4l-4-4V22z"/>
		<path fill="#FFFFFF" d="M38,22v-4l-4,4H38z"/>
		<path fill="#FFFFFF" d="M38,26h-4l4,4V26z"/>
		<path fill="#FFFFFF" d="M42,26v4l4-4H42z"/>
	</g>
</g>
<g id="stop">
	<path fill="#FFFFFF" d="M115.604,3.104c0.292,0,8.876,0,9.146,0c0.27,0,0.562,0.293,0.562,0.584s0,8.438,0,8.75
		S125.063,13,124.75,13c-0.313,0-8.917,0-9.146,0c-0.229,0-0.5-0.227-0.5-0.562s0-8.437,0-8.75S115.313,3.104,115.604,3.104z"/>
</g>
<g id="chooser">
	<path fill="#FFFFFF" d="M135.235,6.152c1.02-0.423,2.19,0.062,2.613,1.082c0.423,1.021-0.062,2.19-1.082,2.613
		c-1.02,0.423-2.19-0.062-2.613-1.082S134.214,6.575,135.235,6.152z M133.273,1.418L136,4.005l2.727-2.588l0.098,3.758l3.758,0.098
		L139.995,8l2.588,2.726l-3.758,0.098l-0.098,3.758L136,11.995l-2.727,2.588l-0.098-3.758l-3.758-0.098L132.005,8l-2.588-2.727
		l3.758-0.098L133.273,1.418z"/>
</g>
</svg>
