<?xml version="1.0" encoding="utf-8"?>
<!-- Generated by IcoMoon.io -->
<!DOCTYPE svg PUBLIC "-//W3C//DTD SVG 1.1//EN" "http://www.w3.org/Graphics/SVG/1.1/DTD/svg11.dtd">
<svg version="1.1" xmlns="http://www.w3.org/2000/svg" xmlns:xlink="http://www.w3.org/1999/xlink" width="56" height="56" viewBox="0 0 56 56">
<path fill="#444444" d="M44 29v10q0 3.719-2.641 6.359t-6.359 2.641h-26q-3.719 0-6.359-2.641t-2.641-6.359v-26q0-3.719 2.641-6.359t6.359-2.641h22q0.438 0 0.719 0.281t0.281 0.719v2q0 0.438-0.281 0.719t-0.719 0.281h-22q-2.062 0-3.531 1.469t-1.469 3.531v26q0 2.062 1.469 3.531t3.531 1.469h26q2.062 0 3.531-1.469t1.469-3.531v-10q0-0.438 0.281-0.719t0.719-0.281h2q0.438 0 0.719 0.281t0.281 0.719zM56 2v16q0 0.812-0.594 1.406t-1.406 0.594-1.406-0.594l-5.5-5.5-20.375 20.375q-0.312 0.312-0.719 0.312t-0.719-0.312l-3.563-3.563q-0.312-0.312-0.312-0.719t0.312-0.719l20.375-20.375-5.5-5.5q-0.594-0.594-0.594-1.406t0.594-1.406 1.406-0.594h16q0.812 0 1.406 0.594t0.594 1.406z"></path>
</svg>
