<svg xmlns="http://www.w3.org/2000/svg" width="38" height="40.775" viewBox="0 0 38 40.775"><path fill="#FFF" d="M5 40.525c-2.75 0-2.75-1.59-2.75-2.75V13.162h33.5v24.613c0 1.16 0 2.75-2.75 2.75H5z"/><path fill="#EDEDED" d="M35.5 13.412v24.363c0 1.172 0 2.5-2.5 2.5H5c-2.5 0-2.5-1.328-2.5-2.5V13.412h33m.5-.5H2v24.863c0 1.157 0 3 3 3h28c3 0 3-1.843 3-3V12.912z"/><path fill="#2388CE" d="M2 4c0-2.157 0-4 3-4h18l13 10v3.863H2V4z"/><path opacity=".5" fill="#515151" d="M23.25 9.578C22.539 8.99 22.794 0 22.794 0l13 10s-11.833.167-12.544-.422z"/><path fill="#009FE3" d="M23.794 9c-.711-.588-1-9-1-9l13 10s-11.289-.412-12-1z"/><linearGradient id="a" gradientUnits="userSpaceOnUse" y1="26.849" x2="38" y2="26.849"><stop offset="0" stop-color="#235bac"/><stop offset=".06" stop-color="#1c78e2"/><stop offset=".09" stop-color="#235bac"/><stop offset=".5" stop-color="#2d72d5"/><stop offset=".91" stop-color="#235bac"/><stop offset=".96" stop-color="#1c78e2"/><stop offset="1" stop-color="#235bac"/></linearGradient><path fill="url(#a)" d="M0 21.787h38v10.125H0z"/><g fill="#FFF"><path d="M11.868 24.149a10.09 10.09 0 0 1 1.479-.111c1 0 1.711.231 2.183.671.48.44.76 1.063.76 1.936 0 .879-.272 1.599-.776 2.095-.503.504-1.335.775-2.382.775-.496 0-.912-.023-1.263-.063v-5.303zm.695 4.765c.176.032.432.04.704.04 1.487 0 2.295-.832 2.295-2.287.008-1.271-.712-2.078-2.183-2.078-.359 0-.631.031-.815.071v4.254zM21.801 26.716c0 1.854-1.127 2.838-2.502 2.838-1.423 0-2.422-1.104-2.422-2.734 0-1.711 1.063-2.83 2.502-2.83 1.471 0 2.422 1.127 2.422 2.726zm-4.182.088c0 1.151.624 2.183 1.719 2.183 1.103 0 1.727-1.016 1.727-2.239 0-1.071-.56-2.19-1.719-2.19-1.151-.001-1.727 1.062-1.727 2.246zM26.474 29.29c-.256.128-.768.256-1.424.256-1.519 0-2.662-.96-2.662-2.727 0-1.688 1.144-2.83 2.814-2.83.671 0 1.095.144 1.279.239l-.168.567a2.55 2.55 0 0 0-1.088-.224c-1.263 0-2.103.808-2.103 2.223 0 1.319.76 2.167 2.071 2.167.423 0 .855-.088 1.135-.224l.146.553z"/></g><path fill="#DADADA" d="M2.484 31.912h33.031v.917H2.484z"/></svg>