<svg xmlns="http://www.w3.org/2000/svg" width="38" height="40.775" viewBox="0 0 38 40.775"><path fill="#FFF" d="M5 40.525c-2.75 0-2.75-1.59-2.75-2.75V13.162h33.5v24.613c0 1.16 0 2.75-2.75 2.75H5z"/><path fill="#EDEDED" d="M35.5 13.412v24.363c0 1.172 0 2.5-2.5 2.5H5c-2.5 0-2.5-1.328-2.5-2.5V13.412h33m.5-.5H2v24.863c0 1.157 0 3 3 3h28c3 0 3-1.843 3-3V12.912z"/><path fill="#E6332A" d="M2 4c0-2.157 0-4 3-4h18l13 10v3.863H2V4z"/><path opacity=".5" fill="#515151" d="M23.25 9.578C22.539 8.99 22.794 0 22.794 0l13 10s-11.833.167-12.544-.422z"/><path fill="#F39200" d="M23.794 9c-.711-.588-1-9-1-9l13 10s-11.289-.412-12-1z"/><linearGradient id="a" gradientUnits="userSpaceOnUse" y1="26.849" x2="38" y2="26.849"><stop offset="0" stop-color="#e94e1b"/><stop offset=".06" stop-color="#f9b233"/><stop offset=".09" stop-color="#e94e1b"/><stop offset=".5" stop-color="#f9b233"/><stop offset=".91" stop-color="#e94e1b"/><stop offset=".96" stop-color="#f9b233"/><stop offset="1" stop-color="#e94e1b"/></linearGradient><path fill="url(#a)" d="M0 21.787h38v10.125H0z"/><g fill="#FFF"><path d="M12.836 24.141a8.044 8.044 0 0 1 1.335-.104c.688 0 1.191.159 1.511.447.296.256.472.647.472 1.128 0 .487-.144.871-.416 1.151-.368.392-.968.591-1.647.591a2.4 2.4 0 0 1-.56-.048v2.159h-.695v-5.324zm.695 2.599c.152.04.344.056.576.056.839 0 1.351-.407 1.351-1.151 0-.711-.503-1.055-1.271-1.055-.304 0-.536.023-.656.056v2.094zM21.697 26.716c0 1.854-1.128 2.838-2.503 2.838-1.423 0-2.423-1.104-2.423-2.734 0-1.711 1.063-2.83 2.503-2.83 1.471 0 2.423 1.127 2.423 2.726zm-4.182.088c0 1.151.624 2.183 1.719 2.183 1.104 0 1.727-1.016 1.727-2.239 0-1.071-.56-2.19-1.719-2.19-1.151-.001-1.727 1.062-1.727 2.246zM23.427 24.669h-1.639v-.592h3.989v.592h-1.646v4.797h-.704v-4.797z"/></g><path fill="#DADADA" d="M2.484 31.912h33.031v.917H2.484z"/></svg>