<svg xmlns="http://www.w3.org/2000/svg" width="38" height="40.775" viewBox="0 0 38 40.775"><path fill="#FFF" d="M5 40.525c-2.75 0-2.75-1.59-2.75-2.75V13.162h33.5v24.613c0 1.16 0 2.75-2.75 2.75H5z"/><path fill="#EDEDED" d="M35.5 13.412v24.363c0 1.172 0 2.5-2.5 2.5H5c-2.5 0-2.5-1.328-2.5-2.5V13.412h33m.5-.5H2v24.863c0 1.157 0 3 3 3h28c3 0 3-1.843 3-3V12.912z"/><path fill="#E6332A" d="M2 4c0-2.157 0-4 3-4h18l13 10v3.863H2V4z"/><path opacity=".5" fill="#515151" d="M23.25 9.578C22.539 8.99 22.794 0 22.794 0l13 10s-11.833.167-12.544-.422z"/><path fill="#F39200" d="M23.794 9c-.711-.588-1-9-1-9l13 10s-11.289-.412-12-1z"/><linearGradient id="a" gradientUnits="userSpaceOnUse" y1="26.849" x2="38" y2="26.849"><stop offset="0" stop-color="#e94e1b"/><stop offset=".06" stop-color="#f9b233"/><stop offset=".09" stop-color="#e94e1b"/><stop offset=".5" stop-color="#f9b233"/><stop offset=".91" stop-color="#e94e1b"/><stop offset=".96" stop-color="#f9b233"/><stop offset="1" stop-color="#e94e1b"/></linearGradient><path fill="url(#a)" d="M0 21.787h38v10.125H0z"/><g fill="#FFF"><path d="M10.992 24.141a8.044 8.044 0 0 1 1.335-.104c.688 0 1.191.159 1.511.447.296.256.472.647.472 1.128 0 .487-.144.871-.416 1.151-.368.392-.968.591-1.647.591a2.4 2.4 0 0 1-.56-.048v2.159h-.695v-5.324zm.695 2.599c.152.04.344.056.576.056.839 0 1.351-.407 1.351-1.151 0-.711-.503-1.055-1.271-1.055-.304 0-.536.023-.656.056v2.094zM15.248 24.141a8.044 8.044 0 0 1 1.335-.104c.688 0 1.191.159 1.511.447.296.256.472.647.472 1.128 0 .487-.144.871-.416 1.151-.368.392-.968.591-1.647.591a2.4 2.4 0 0 1-.56-.048v2.159h-.695v-5.324zm.695 2.599c.152.04.344.056.576.056.839 0 1.351-.407 1.351-1.151 0-.711-.503-1.055-1.271-1.055-.304 0-.536.023-.656.056v2.094zM20.527 24.669h-1.639v-.592h3.99v.592H21.23v4.797h-.703v-4.797zM26.605 29.466l-.688-1.191a22.273 22.273 0 0 1-.623-1.063h-.017c-.151.312-.304.6-.583 1.071l-.648 1.184h-.799l1.646-2.727-1.583-2.662h.808l.712 1.263c.2.353.352.624.495.912h.024c.152-.32.288-.568.487-.912l.736-1.263h.799L25.734 26.7l1.679 2.767h-.808z"/></g><path fill="#DADADA" d="M2.484 31.912h33.031v.917H2.484z"/></svg>