<svg xmlns="http://www.w3.org/2000/svg" width="38" height="40.775" viewBox="0 0 38 40.775"><path fill="#FFF" d="M5 40.525c-2.75 0-2.75-1.59-2.75-2.75V13.162h33.5v24.613c0 1.16 0 2.75-2.75 2.75H5z"/><path fill="#EDEDED" d="M35.5 13.412v24.363c0 1.172 0 2.5-2.5 2.5H5c-2.5 0-2.5-1.328-2.5-2.5V13.412h33m.5-.5H2v24.863c0 1.157 0 3 3 3h28c3 0 3-1.843 3-3V12.912z"/><path fill="#2388CE" d="M2 4c0-2.157 0-4 3-4h18l13 10v3.863H2V4z"/><path opacity=".5" fill="#515151" d="M23.25 9.578C22.539 8.99 22.794 0 22.794 0l13 10s-11.833.167-12.544-.422z"/><path fill="#009FE3" d="M23.794 9c-.711-.588-1-9-1-9l13 10s-11.289-.412-12-1z"/><linearGradient id="a" gradientUnits="userSpaceOnUse" y1="26.849" x2="38" y2="26.849"><stop offset="0" stop-color="#235bac"/><stop offset=".06" stop-color="#1c78e2"/><stop offset=".09" stop-color="#235bac"/><stop offset=".5" stop-color="#2d72d5"/><stop offset=".91" stop-color="#235bac"/><stop offset=".96" stop-color="#1c78e2"/><stop offset="1" stop-color="#235bac"/></linearGradient><path fill="url(#a)" d="M0 21.787h38v10.125H0z"/><g fill="#FFF"><path d="M12.836 24.149a7.333 7.333 0 0 1 1.335-.111c.744 0 1.224.136 1.559.439.272.24.424.607.424 1.023 0 .712-.448 1.184-1.015 1.375v.025c.416.144.664.527.792 1.087.176.752.304 1.271.416 1.479h-.72c-.088-.152-.208-.615-.359-1.287-.16-.744-.448-1.023-1.08-1.048h-.656v2.335h-.695v-5.317zm.695 2.455h.712c.743 0 1.215-.408 1.215-1.023 0-.695-.503-1-1.239-1.008-.335 0-.576.032-.688.064v1.967zM18.051 27.771l-.56 1.695h-.72l1.831-5.389h.84l1.838 5.389h-.743l-.576-1.695h-1.91zm1.767-.543l-.527-1.552c-.12-.352-.2-.672-.28-.983h-.016c-.08.32-.168.647-.272.976l-.528 1.56h1.623zM22.075 24.149a7.345 7.345 0 0 1 1.336-.111c.743 0 1.223.136 1.559.439.272.24.424.607.424 1.023 0 .712-.447 1.184-1.016 1.375v.025c.416.144.664.527.792 1.087.176.752.304 1.271.416 1.479h-.72c-.088-.152-.208-.615-.36-1.287-.16-.744-.447-1.023-1.079-1.048h-.655v2.335h-.696v-5.317zm.696 2.455h.711c.744 0 1.216-.408 1.216-1.023 0-.695-.504-1-1.239-1.008-.336 0-.576.032-.688.064v1.967z"/></g><path fill="#DADADA" d="M2.484 31.912h33.031v.917H2.484z"/><g fill="#D60B52"><path d="M5 40.525c-2.75 0-2.75-1.59-2.75-2.75V13.162h33.5v24.613c0 1.16 0 2.75-2.75 2.75H5z"/><path d="M35.5 13.412v24.363c0 1.172 0 2.5-2.5 2.5H5c-2.5 0-2.5-1.328-2.5-2.5V13.412h33m.5-.5H2v24.863c0 1.157 0 3 3 3h28c3 0 3-1.843 3-3V12.912z"/><path d="M2 4c0-2.157 0-4 3-4h18l13 10v3.863H2V4z"/><path d="M23.25 9.578C22.539 8.99 22.794 0 22.794 0l13 10s-11.833.167-12.544-.422z"/><path d="M23.794 9c-.711-.588-1-9-1-9l13 10s-11.289-.412-12-1zM0 21.787h38v10.125H0z"/><path d="M12.836 24.149a7.333 7.333 0 0 1 1.335-.111c.744 0 1.224.136 1.559.439.272.24.424.607.424 1.023 0 .712-.448 1.184-1.015 1.375v.025c.416.144.664.527.792 1.087.176.752.304 1.271.416 1.479h-.72c-.088-.152-.208-.615-.359-1.287-.16-.744-.448-1.023-1.08-1.048h-.656v2.335h-.695v-5.317zm.695 2.455h.712c.743 0 1.215-.408 1.215-1.023 0-.695-.503-1-1.239-1.008-.335 0-.576.032-.688.064v1.967zM18.051 27.771l-.56 1.695h-.72l1.831-5.389h.84l1.838 5.389h-.743l-.576-1.695h-1.91zm1.767-.543l-.527-1.552c-.12-.352-.2-.672-.28-.983h-.016c-.08.32-.168.647-.272.976l-.528 1.56h1.623zM22.075 24.149a7.345 7.345 0 0 1 1.336-.111c.743 0 1.223.136 1.559.439.272.24.424.607.424 1.023 0 .712-.447 1.184-1.016 1.375v.025c.416.144.664.527.792 1.087.176.752.304 1.271.416 1.479h-.72c-.088-.152-.208-.615-.36-1.287-.16-.744-.447-1.023-1.079-1.048h-.655v2.335h-.696v-5.317zm.696 2.455h.711c.744 0 1.216-.408 1.216-1.023 0-.695-.504-1-1.239-1.008-.336 0-.576.032-.688.064v1.967zM2.484 31.912h33.031v.917H2.484z"/></g></svg>