<svg xmlns="http://www.w3.org/2000/svg" width="38" height="40.775" viewBox="0 0 38 40.775"><path fill="#FFF" d="M5 40.525c-2.75 0-2.75-1.59-2.75-2.75V13.162h33.5v24.613c0 1.16 0 2.75-2.75 2.75H5z"/><path fill="#EDEDED" d="M35.5 13.412v24.363c0 1.172 0 2.5-2.5 2.5H5c-2.5 0-2.5-1.328-2.5-2.5V13.412h33m.5-.5H2v24.863c0 1.157 0 3 3 3h28c3 0 3-1.843 3-3V12.912z"/><path fill="#2388CE" d="M2 4c0-2.157 0-4 3-4h18l13 10v3.863H2V4z"/><path opacity=".5" fill="#515151" d="M23.25 9.578C22.539 8.99 22.794 0 22.794 0l13 10s-11.833.167-12.544-.422z"/><path fill="#009FE3" d="M23.794 9c-.711-.588-1-9-1-9l13 10s-11.289-.412-12-1z"/><linearGradient id="a" gradientUnits="userSpaceOnUse" y1="26.849" x2="38" y2="26.849"><stop offset="0" stop-color="#235bac"/><stop offset=".06" stop-color="#1c78e2"/><stop offset=".09" stop-color="#235bac"/><stop offset=".5" stop-color="#2d72d5"/><stop offset=".91" stop-color="#235bac"/><stop offset=".96" stop-color="#1c78e2"/><stop offset="1" stop-color="#235bac"/></linearGradient><path fill="url(#a)" d="M0 21.787h38v10.125H0z"/><g fill="#FFF"><path d="M14.251 24.669h-1.639v-.592h3.99v.592h-1.647v4.797h-.704v-4.797zM20.33 29.466l-.688-1.191c-.28-.456-.456-.752-.624-1.063h-.016c-.152.312-.304.6-.584 1.071l-.647 1.184h-.8l1.647-2.727-1.583-2.662h.808l.712 1.263c.2.353.352.624.496.912h.024c.152-.32.288-.568.488-.912l.735-1.263h.8l-1.64 2.622 1.679 2.767h-.807zM23.035 24.669h-1.639v-.592h3.989v.592h-1.646v4.797h-.704v-4.797z"/></g><path fill="#DADADA" d="M2.484 31.912h33.031v.917H2.484z"/></svg>