<svg xmlns="http://www.w3.org/2000/svg" width="38" height="40.775" viewBox="0 0 38 40.775"><path fill="#FFF" d="M5 40.525c-2.75 0-2.75-1.59-2.75-2.75V13.162h33.5v24.613c0 1.16 0 2.75-2.75 2.75H5z"/><path fill="#EDEDED" d="M35.5 13.412v24.363c0 1.172 0 2.5-2.5 2.5H5c-2.5 0-2.5-1.328-2.5-2.5V13.412h33m.5-.5H2v24.863c0 1.157 0 3 3 3h28c3 0 3-1.843 3-3V12.912z"/><path fill="#2388CE" d="M2 4c0-2.157 0-4 3-4h18l13 10v3.863H2V4z"/><path opacity=".5" fill="#515151" d="M23.25 9.578C22.539 8.99 22.794 0 22.794 0l13 10s-11.833.167-12.544-.422z"/><path fill="#009FE3" d="M23.794 9c-.711-.588-1-9-1-9l13 10s-11.289-.412-12-1z"/><linearGradient id="a" gradientUnits="userSpaceOnUse" y1="26.849" x2="38" y2="26.849"><stop offset="0" stop-color="#235bac"/><stop offset=".06" stop-color="#1c78e2"/><stop offset=".09" stop-color="#235bac"/><stop offset=".5" stop-color="#2d72d5"/><stop offset=".91" stop-color="#235bac"/><stop offset=".96" stop-color="#1c78e2"/><stop offset="1" stop-color="#235bac"/></linearGradient><path fill="url(#a)" d="M0 21.787h38v10.125H0z"/><g fill="#FFF"><path d="M13.944 29.058l2.991-4.373v-.024H14.2v-.583h3.638v.424l-2.975 4.357v.023h3.015v.584h-3.934v-.408zM19.431 24.078v5.389h-.696v-5.389h.696zM20.647 24.141a8.057 8.057 0 0 1 1.336-.104c.688 0 1.19.159 1.511.447.296.256.472.647.472 1.128 0 .487-.144.871-.416 1.151-.367.392-.967.591-1.646.591-.208 0-.4-.008-.56-.048v2.159h-.696v-5.324zm.697 2.599c.151.04.344.056.575.056.84 0 1.352-.407 1.352-1.151 0-.711-.504-1.055-1.271-1.055-.304 0-.536.023-.655.056v2.094z"/></g><path fill="#DADADA" d="M2.484 31.912h33.031v.917H2.484z"/><g fill="#662483"><path d="M5 40.525c-2.75 0-2.75-1.59-2.75-2.75V13.162h33.5v24.613c0 1.16 0 2.75-2.75 2.75H5z"/><path d="M35.5 13.412v24.363c0 1.172 0 2.5-2.5 2.5H5c-2.5 0-2.5-1.328-2.5-2.5V13.412h33m.5-.5H2v24.863c0 1.157 0 3 3 3h28c3 0 3-1.843 3-3V12.912z"/><path d="M2 4c0-2.157 0-4 3-4h18l13 10v3.863H2V4z"/><path d="M23.25 9.578C22.539 8.99 22.794 0 22.794 0l13 10s-11.833.167-12.544-.422z"/><path d="M23.794 9c-.711-.588-1-9-1-9l13 10s-11.289-.412-12-1zM0 21.787h38v10.125H0z"/><path d="M13.944 29.058l2.991-4.373v-.024H14.2v-.583h3.638v.424l-2.975 4.357v.023h3.015v.584h-3.934v-.408zM19.431 24.078v5.389h-.696v-5.389h.696zM20.647 24.141a8.057 8.057 0 0 1 1.336-.104c.688 0 1.19.159 1.511.447.296.256.472.647.472 1.128 0 .487-.144.871-.416 1.151-.367.392-.967.591-1.646.591-.208 0-.4-.008-.56-.048v2.159h-.696v-5.324zm.697 2.599c.151.04.344.056.575.056.84 0 1.352-.407 1.352-1.151 0-.711-.504-1.055-1.271-1.055-.304 0-.536.023-.655.056v2.094zM2.484 31.912h33.031v.917H2.484z"/></g></svg>