<?xml version="1.0" encoding="utf-8"?>
<!-- Generator: Adobe Illustrator 17.0.0, SVG Export Plug-In . SVG Version: 6.00 Build 0)  -->
<!DOCTYPE svg PUBLIC "-//W3C//DTD SVG 1.1//EN" "http://www.w3.org/Graphics/SVG/1.1/DTD/svg11.dtd" [
	<!ENTITY ns_flows "http://ns.adobe.com/Flows/1.0/">
	<!ENTITY ns_extend "http://ns.adobe.com/Extensibility/1.0/">
	<!ENTITY ns_ai "http://ns.adobe.com/AdobeIllustrator/10.0/">
	<!ENTITY ns_graphs "http://ns.adobe.com/Graphs/1.0/">
]>
<svg version="1.1" id="Warstwa_1" xmlns:x="&ns_extend;" xmlns:i="&ns_ai;" xmlns:graph="&ns_graphs;"
	 xmlns="http://www.w3.org/2000/svg" xmlns:xlink="http://www.w3.org/1999/xlink" xmlns:a="http://ns.adobe.com/AdobeSVGViewerExtensions/3.0/"
	 x="0px" y="0px" width="38px" height="40.775px" viewBox="0 0 38 40.775" enable-background="new 0 0 38 40.775"
	 xml:space="preserve">
<g id="ODS">
	<g>
		<g>
			<path fill="#FFFFFF" d="M5,40.525c-2.75,0-2.75-1.59-2.75-2.75V13.162h33.5v24.613c0,1.16,0,2.75-2.75,2.75H5z"/>
			<path fill="#EDEDED" d="M35.5,13.412v24.363c0,1.172,0,2.5-2.5,2.5H5c-2.5,0-2.5-1.328-2.5-2.5V13.412H35.5 M36,12.912H2v24.863
				c0,1.157,0,3,3,3h28c3,0,3-1.843,3-3V12.912L36,12.912z"/>
		</g>
		<path fill="#2388CE" d="M2,4c0-2.157,0-4,3-4l18,0l13,10v3.863H2V4z"/>
		<path opacity="0.5" fill="#515151" d="M23.25,9.578C22.539,8.99,22.794,0,22.794,0l13,10C35.794,10,23.961,10.167,23.25,9.578z"/>
		<path fill="#009FE3" d="M23.794,9c-0.711-0.588-1-9-1-9l13,10C35.794,10,24.505,9.588,23.794,9z"/>
		<linearGradient id="SVGID_1_" gradientUnits="userSpaceOnUse" x1="0" y1="26.849" x2="38" y2="26.849">
			<stop  offset="0" style="stop-color:#235BAC"/>
			<stop  offset="0.06" style="stop-color:#1C78E2"/>
			<stop  offset="0.09" style="stop-color:#235BAC"/>
			<stop  offset="0.5" style="stop-color:#2D72D5"/>
			<stop  offset="0.91" style="stop-color:#235BAC"/>
			<stop  offset="0.96" style="stop-color:#1C78E2"/>
			<stop  offset="1" style="stop-color:#235BAC"/>
			<a:midPointStop  offset="0" style="stop-color:#235BAC"/>
			<a:midPointStop  offset="0.5" style="stop-color:#235BAC"/>
			<a:midPointStop  offset="0.06" style="stop-color:#1C78E2"/>
			<a:midPointStop  offset="0.5" style="stop-color:#1C78E2"/>
			<a:midPointStop  offset="0.09" style="stop-color:#235BAC"/>
			<a:midPointStop  offset="0.5" style="stop-color:#235BAC"/>
			<a:midPointStop  offset="0.5" style="stop-color:#2D72D5"/>
			<a:midPointStop  offset="0.5" style="stop-color:#2D72D5"/>
			<a:midPointStop  offset="0.91" style="stop-color:#235BAC"/>
			<a:midPointStop  offset="0.5" style="stop-color:#235BAC"/>
			<a:midPointStop  offset="0.96" style="stop-color:#1C78E2"/>
			<a:midPointStop  offset="0.5" style="stop-color:#1C78E2"/>
			<a:midPointStop  offset="1" style="stop-color:#235BAC"/>
		</linearGradient>
		<rect x="0" y="21.787" fill="url(#SVGID_1_)" width="38" height="10.125"/>
		<g>
			<path fill="#FFFFFF" d="M16.821,26.716c0,1.854-1.127,2.838-2.503,2.838c-1.423,0-2.423-1.104-2.423-2.734
				c0-1.711,1.063-2.83,2.503-2.83C15.87,23.99,16.821,25.117,16.821,26.716z M12.639,26.804c0,1.151,0.624,2.183,1.719,2.183
				c1.104,0,1.727-1.016,1.727-2.239c0-1.071-0.56-2.19-1.719-2.19C13.215,24.557,12.639,25.62,12.639,26.804z"/>
			<path fill="#FFFFFF" d="M17.728,24.149c0.424-0.063,0.928-0.111,1.479-0.111c0.999,0,1.711,0.231,2.183,0.671
				c0.479,0.44,0.76,1.063,0.76,1.936c0,0.879-0.271,1.599-0.775,2.095c-0.504,0.504-1.336,0.775-2.383,0.775
				c-0.496,0-0.912-0.023-1.264-0.063V24.149z M18.423,28.914c0.176,0.032,0.432,0.04,0.704,0.04c1.487,0,2.295-0.832,2.295-2.287
				c0.008-1.271-0.712-2.078-2.183-2.078c-0.36,0-0.631,0.031-0.815,0.071V28.914z"/>
			<path fill="#FFFFFF" d="M22.96,28.619c0.312,0.192,0.768,0.352,1.247,0.352c0.712,0,1.128-0.375,1.128-0.919
				c0-0.504-0.288-0.792-1.016-1.071c-0.88-0.313-1.423-0.768-1.423-1.527c0-0.84,0.695-1.463,1.742-1.463
				c0.552,0,0.952,0.128,1.191,0.264l-0.191,0.567c-0.176-0.096-0.536-0.256-1.023-0.256c-0.735,0-1.016,0.439-1.016,0.808
				c0,0.504,0.328,0.752,1.071,1.039c0.911,0.353,1.375,0.792,1.375,1.584c0,0.831-0.615,1.551-1.887,1.551
				c-0.52,0-1.087-0.152-1.375-0.344L22.96,28.619z"/>
		</g>
		<rect x="2.484" y="31.912" fill="#DADADA" width="33.031" height="0.917"/>
	</g>
	<g  a:adobe-blending-mode="hue">
		<g  a:adobe-blending-mode="normal">
			<path fill="#008D36" d="M5,40.525c-2.75,0-2.75-1.59-2.75-2.75V13.162h33.5v24.613c0,1.16,0,2.75-2.75,2.75H5z"/>
			<path fill="#008D36" d="M35.5,13.412v24.363c0,1.172,0,2.5-2.5,2.5H5c-2.5,0-2.5-1.328-2.5-2.5V13.412H35.5 M36,12.912H2v24.863
				c0,1.157,0,3,3,3h28c3,0,3-1.843,3-3V12.912L36,12.912z"/>
		</g>
		<path fill="#008D36"  a:adobe-blending-mode="normal" d="M2,4c0-2.157,0-4,3-4l18,0l13,10v3.863H2V4z"/>
		<path fill="#008D36"  a:adobe-blending-mode="normal" d="M23.25,9.578C22.539,8.99,22.794,0,22.794,0l13,10
			C35.794,10,23.961,10.167,23.25,9.578z"/>
		<path fill="#008D36"  a:adobe-blending-mode="normal" d="M23.794,9c-0.711-0.588-1-9-1-9l13,10C35.794,10,24.505,9.588,23.794,9z"
			/>
		<rect x="0" y="21.787" fill="#008D36"  a:adobe-blending-mode="normal" width="38" height="10.125"/>
		<g  a:adobe-blending-mode="normal">
			<path fill="#008D36" d="M16.821,26.716c0,1.854-1.127,2.838-2.503,2.838c-1.423,0-2.423-1.104-2.423-2.734
				c0-1.711,1.063-2.83,2.503-2.83C15.87,23.99,16.821,25.117,16.821,26.716z M12.639,26.804c0,1.151,0.624,2.183,1.719,2.183
				c1.104,0,1.727-1.016,1.727-2.239c0-1.071-0.56-2.19-1.719-2.19C13.215,24.557,12.639,25.62,12.639,26.804z"/>
			<path fill="#008D36" d="M17.728,24.149c0.424-0.063,0.928-0.111,1.479-0.111c0.999,0,1.711,0.231,2.183,0.671
				c0.479,0.44,0.76,1.063,0.76,1.936c0,0.879-0.271,1.599-0.775,2.095c-0.504,0.504-1.336,0.775-2.383,0.775
				c-0.496,0-0.912-0.023-1.264-0.063V24.149z M18.423,28.914c0.176,0.032,0.432,0.04,0.704,0.04c1.487,0,2.295-0.832,2.295-2.287
				c0.008-1.271-0.712-2.078-2.183-2.078c-0.36,0-0.631,0.031-0.815,0.071V28.914z"/>
			<path fill="#008D36" d="M22.96,28.619c0.312,0.192,0.768,0.352,1.247,0.352c0.712,0,1.128-0.375,1.128-0.919
				c0-0.504-0.288-0.792-1.016-1.071c-0.88-0.313-1.423-0.768-1.423-1.527c0-0.84,0.695-1.463,1.742-1.463
				c0.552,0,0.952,0.128,1.191,0.264l-0.191,0.567c-0.176-0.096-0.536-0.256-1.023-0.256c-0.735,0-1.016,0.439-1.016,0.808
				c0,0.504,0.328,0.752,1.071,1.039c0.911,0.353,1.375,0.792,1.375,1.584c0,0.831-0.615,1.551-1.887,1.551
				c-0.52,0-1.087-0.152-1.375-0.344L22.96,28.619z"/>
		</g>
		<rect x="2.484" y="31.912" fill="#008D36"  a:adobe-blending-mode="normal" width="33.031" height="0.917"/>
	</g>
</g>
</svg>
