<?xml version="1.0" encoding="utf-8"?>
<!-- Generator: Adobe Illustrator 17.0.0, SVG Export Plug-In . SVG Version: 6.00 Build 0)  -->
<!DOCTYPE svg PUBLIC "-//W3C//DTD SVG 1.1//EN" "http://www.w3.org/Graphics/SVG/1.1/DTD/svg11.dtd" [
	<!ENTITY ns_flows "http://ns.adobe.com/Flows/1.0/">
	<!ENTITY ns_extend "http://ns.adobe.com/Extensibility/1.0/">
	<!ENTITY ns_ai "http://ns.adobe.com/AdobeIllustrator/10.0/">
	<!ENTITY ns_graphs "http://ns.adobe.com/Graphs/1.0/">
]>
<svg version="1.1" id="Warstwa_1" xmlns:x="&ns_extend;" xmlns:i="&ns_ai;" xmlns:graph="&ns_graphs;"
	 xmlns="http://www.w3.org/2000/svg" xmlns:xlink="http://www.w3.org/1999/xlink" xmlns:a="http://ns.adobe.com/AdobeSVGViewerExtensions/3.0/"
	 x="0px" y="0px" width="38px" height="40.775px" viewBox="0 0 38 40.775" enable-background="new 0 0 38 40.775"
	 xml:space="preserve">
<g id="POT">
	<g>
		<g>
			<path fill="#FFFFFF" d="M5,40.525c-2.75,0-2.75-1.59-2.75-2.75V13.162h33.5v24.613c0,1.16,0,2.75-2.75,2.75H5z"/>
			<path fill="#EDEDED" d="M35.5,13.412v24.363c0,1.172,0,2.5-2.5,2.5H5c-2.5,0-2.5-1.328-2.5-2.5V13.412H35.5 M36,12.912H2v24.863
				c0,1.157,0,3,3,3h28c3,0,3-1.843,3-3V12.912L36,12.912z"/>
		</g>
		<path fill="#E6332A" d="M2,4c0-2.157,0-4,3-4l18,0l13,10v3.863H2V4z"/>
		<path opacity="0.5" fill="#515151" d="M23.25,9.578C22.539,8.99,22.794,0,22.794,0l13,10C35.794,10,23.961,10.167,23.25,9.578z"/>
		<path fill="#F39200" d="M23.794,9c-0.711-0.588-1-9-1-9l13,10C35.794,10,24.505,9.588,23.794,9z"/>
		<linearGradient id="SVGID_1_" gradientUnits="userSpaceOnUse" x1="0" y1="26.849" x2="38" y2="26.849">
			<stop  offset="0" style="stop-color:#E94E1B"/>
			<stop  offset="0.06" style="stop-color:#F9B233"/>
			<stop  offset="0.09" style="stop-color:#E94E1B"/>
			<stop  offset="0.5" style="stop-color:#F9B233"/>
			<stop  offset="0.91" style="stop-color:#E94E1B"/>
			<stop  offset="0.96" style="stop-color:#F9B233"/>
			<stop  offset="1" style="stop-color:#E94E1B"/>
			<a:midPointStop  offset="0" style="stop-color:#E94E1B"/>
			<a:midPointStop  offset="0.5" style="stop-color:#E94E1B"/>
			<a:midPointStop  offset="0.06" style="stop-color:#F9B233"/>
			<a:midPointStop  offset="0.5" style="stop-color:#F9B233"/>
			<a:midPointStop  offset="0.09" style="stop-color:#E94E1B"/>
			<a:midPointStop  offset="0.5" style="stop-color:#E94E1B"/>
			<a:midPointStop  offset="0.5" style="stop-color:#F9B233"/>
			<a:midPointStop  offset="0.5" style="stop-color:#F9B233"/>
			<a:midPointStop  offset="0.91" style="stop-color:#E94E1B"/>
			<a:midPointStop  offset="0.5" style="stop-color:#E94E1B"/>
			<a:midPointStop  offset="0.96" style="stop-color:#F9B233"/>
			<a:midPointStop  offset="0.5" style="stop-color:#F9B233"/>
			<a:midPointStop  offset="1" style="stop-color:#E94E1B"/>
		</linearGradient>
		<rect x="0" y="21.787" fill="url(#SVGID_1_)" width="38" height="10.125"/>
		<g>
			<path fill="#FFFFFF" d="M12.836,24.141c0.335-0.056,0.775-0.104,1.335-0.104c0.688,0,1.191,0.159,1.511,0.447
				c0.296,0.256,0.472,0.647,0.472,1.128c0,0.487-0.144,0.871-0.416,1.151c-0.368,0.392-0.968,0.591-1.647,0.591
				c-0.208,0-0.399-0.008-0.56-0.048v2.159h-0.695V24.141z M13.531,26.74c0.152,0.04,0.344,0.056,0.576,0.056
				c0.839,0,1.351-0.407,1.351-1.151c0-0.711-0.503-1.055-1.271-1.055c-0.304,0-0.536,0.023-0.656,0.056V26.74z"/>
			<path fill="#FFFFFF" d="M21.697,26.716c0,1.854-1.128,2.838-2.503,2.838c-1.423,0-2.423-1.104-2.423-2.734
				c0-1.711,1.063-2.83,2.503-2.83C20.745,23.99,21.697,25.117,21.697,26.716z M17.515,26.804c0,1.151,0.624,2.183,1.719,2.183
				c1.104,0,1.727-1.016,1.727-2.239c0-1.071-0.56-2.19-1.719-2.19C18.091,24.557,17.515,25.62,17.515,26.804z"/>
			<path fill="#FFFFFF" d="M23.427,24.669h-1.639v-0.592h3.989v0.592h-1.646v4.797h-0.704V24.669z"/>
		</g>
		<rect x="2.484" y="31.912" fill="#DADADA" width="33.031" height="0.917"/>
	</g>
</g>
</svg>
