<?xml version="1.0" encoding="utf-8"?>
<!-- Generator: Adobe Illustrator 17.0.0, SVG Export Plug-In . SVG Version: 6.00 Build 0)  -->
<!DOCTYPE svg PUBLIC "-//W3C//DTD SVG 1.1//EN" "http://www.w3.org/Graphics/SVG/1.1/DTD/svg11.dtd" [
	<!ENTITY ns_flows "http://ns.adobe.com/Flows/1.0/">
	<!ENTITY ns_extend "http://ns.adobe.com/Extensibility/1.0/">
	<!ENTITY ns_ai "http://ns.adobe.com/AdobeIllustrator/10.0/">
	<!ENTITY ns_graphs "http://ns.adobe.com/Graphs/1.0/">
]>
<svg version="1.1" id="Warstwa_1" xmlns:x="&ns_extend;" xmlns:i="&ns_ai;" xmlns:graph="&ns_graphs;"
	 xmlns="http://www.w3.org/2000/svg" xmlns:xlink="http://www.w3.org/1999/xlink" xmlns:a="http://ns.adobe.com/AdobeSVGViewerExtensions/3.0/"
	 x="0px" y="0px" width="38px" height="40.775px" viewBox="0 0 38 40.775" enable-background="new 0 0 38 40.775"
	 xml:space="preserve">
<g id="RAR">
	<g>
		<g>
			<path fill="#FFFFFF" d="M5,40.525c-2.75,0-2.75-1.59-2.75-2.75V13.162h33.5v24.613c0,1.16,0,2.75-2.75,2.75H5z"/>
			<path fill="#EDEDED" d="M35.5,13.412v24.363c0,1.172,0,2.5-2.5,2.5H5c-2.5,0-2.5-1.328-2.5-2.5V13.412H35.5 M36,12.912H2v24.863
				c0,1.157,0,3,3,3h28c3,0,3-1.843,3-3V12.912L36,12.912z"/>
		</g>
		<path fill="#2388CE" d="M2,4c0-2.157,0-4,3-4l18,0l13,10v3.863H2V4z"/>
		<path opacity="0.5" fill="#515151" d="M23.25,9.578C22.539,8.99,22.794,0,22.794,0l13,10C35.794,10,23.961,10.167,23.25,9.578z"/>
		<path fill="#009FE3" d="M23.794,9c-0.711-0.588-1-9-1-9l13,10C35.794,10,24.505,9.588,23.794,9z"/>
		<linearGradient id="SVGID_1_" gradientUnits="userSpaceOnUse" x1="0" y1="26.849" x2="38" y2="26.849">
			<stop  offset="0" style="stop-color:#235BAC"/>
			<stop  offset="0.06" style="stop-color:#1C78E2"/>
			<stop  offset="0.09" style="stop-color:#235BAC"/>
			<stop  offset="0.5" style="stop-color:#2D72D5"/>
			<stop  offset="0.91" style="stop-color:#235BAC"/>
			<stop  offset="0.96" style="stop-color:#1C78E2"/>
			<stop  offset="1" style="stop-color:#235BAC"/>
			<a:midPointStop  offset="0" style="stop-color:#235BAC"/>
			<a:midPointStop  offset="0.5" style="stop-color:#235BAC"/>
			<a:midPointStop  offset="0.06" style="stop-color:#1C78E2"/>
			<a:midPointStop  offset="0.5" style="stop-color:#1C78E2"/>
			<a:midPointStop  offset="0.09" style="stop-color:#235BAC"/>
			<a:midPointStop  offset="0.5" style="stop-color:#235BAC"/>
			<a:midPointStop  offset="0.5" style="stop-color:#2D72D5"/>
			<a:midPointStop  offset="0.5" style="stop-color:#2D72D5"/>
			<a:midPointStop  offset="0.91" style="stop-color:#235BAC"/>
			<a:midPointStop  offset="0.5" style="stop-color:#235BAC"/>
			<a:midPointStop  offset="0.96" style="stop-color:#1C78E2"/>
			<a:midPointStop  offset="0.5" style="stop-color:#1C78E2"/>
			<a:midPointStop  offset="1" style="stop-color:#235BAC"/>
		</linearGradient>
		<rect x="0" y="21.787" fill="url(#SVGID_1_)" width="38" height="10.125"/>
		<g>
			<path fill="#FFFFFF" d="M12.836,24.149c0.352-0.071,0.855-0.111,1.335-0.111c0.744,0,1.224,0.136,1.559,0.439
				c0.272,0.24,0.424,0.607,0.424,1.023c0,0.712-0.448,1.184-1.015,1.375V26.9c0.416,0.144,0.664,0.527,0.792,1.087
				c0.176,0.752,0.304,1.271,0.416,1.479h-0.72c-0.088-0.152-0.208-0.615-0.359-1.287c-0.16-0.744-0.448-1.023-1.08-1.048h-0.656
				v2.335h-0.695V24.149z M13.531,26.604h0.712c0.743,0,1.215-0.408,1.215-1.023c0-0.695-0.503-1-1.239-1.008
				c-0.335,0-0.576,0.032-0.688,0.064V26.604z"/>
			<path fill="#FFFFFF" d="M18.051,27.771l-0.56,1.695h-0.72l1.831-5.389h0.84l1.838,5.389h-0.743l-0.576-1.695H18.051z
				 M19.818,27.228l-0.527-1.552c-0.12-0.352-0.2-0.672-0.28-0.983h-0.016c-0.08,0.32-0.168,0.647-0.272,0.976l-0.528,1.56H19.818z"
				/>
			<path fill="#FFFFFF" d="M22.075,24.149c0.353-0.071,0.855-0.111,1.336-0.111c0.743,0,1.223,0.136,1.559,0.439
				c0.272,0.24,0.424,0.607,0.424,1.023c0,0.712-0.447,1.184-1.016,1.375V26.9c0.416,0.144,0.664,0.527,0.792,1.087
				c0.176,0.752,0.304,1.271,0.416,1.479h-0.72c-0.088-0.152-0.208-0.615-0.36-1.287c-0.16-0.744-0.447-1.023-1.079-1.048h-0.655
				v2.335h-0.696V24.149z M22.771,26.604h0.711c0.744,0,1.216-0.408,1.216-1.023c0-0.695-0.504-1-1.239-1.008
				c-0.336,0-0.576,0.032-0.688,0.064V26.604z"/>
		</g>
		<rect x="2.484" y="31.912" fill="#DADADA" width="33.031" height="0.917"/>
	</g>
	<g  a:adobe-blending-mode="hue">
		<g  a:adobe-blending-mode="normal">
			<path fill="#D60B52" d="M5,40.525c-2.75,0-2.75-1.59-2.75-2.75V13.162h33.5v24.613c0,1.16,0,2.75-2.75,2.75H5z"/>
			<path fill="#D60B52" d="M35.5,13.412v24.363c0,1.172,0,2.5-2.5,2.5H5c-2.5,0-2.5-1.328-2.5-2.5V13.412H35.5 M36,12.912H2v24.863
				c0,1.157,0,3,3,3h28c3,0,3-1.843,3-3V12.912L36,12.912z"/>
		</g>
		<path fill="#D60B52"  a:adobe-blending-mode="normal" d="M2,4c0-2.157,0-4,3-4l18,0l13,10v3.863H2V4z"/>
		<path fill="#D60B52"  a:adobe-blending-mode="normal" d="M23.25,9.578C22.539,8.99,22.794,0,22.794,0l13,10
			C35.794,10,23.961,10.167,23.25,9.578z"/>
		<path fill="#D60B52"  a:adobe-blending-mode="normal" d="M23.794,9c-0.711-0.588-1-9-1-9l13,10C35.794,10,24.505,9.588,23.794,9z"
			/>
		<rect x="0" y="21.787" fill="#D60B52"  a:adobe-blending-mode="normal" width="38" height="10.125"/>
		<g  a:adobe-blending-mode="normal">
			<path fill="#D60B52" d="M12.836,24.149c0.352-0.071,0.855-0.111,1.335-0.111c0.744,0,1.224,0.136,1.559,0.439
				c0.272,0.24,0.424,0.607,0.424,1.023c0,0.712-0.448,1.184-1.015,1.375V26.9c0.416,0.144,0.664,0.527,0.792,1.087
				c0.176,0.752,0.304,1.271,0.416,1.479h-0.72c-0.088-0.152-0.208-0.615-0.359-1.287c-0.16-0.744-0.448-1.023-1.08-1.048h-0.656
				v2.335h-0.695V24.149z M13.531,26.604h0.712c0.743,0,1.215-0.408,1.215-1.023c0-0.695-0.503-1-1.239-1.008
				c-0.335,0-0.576,0.032-0.688,0.064V26.604z"/>
			<path fill="#D60B52" d="M18.051,27.771l-0.56,1.695h-0.72l1.831-5.389h0.84l1.838,5.389h-0.743l-0.576-1.695H18.051z
				 M19.818,27.228l-0.527-1.552c-0.12-0.352-0.2-0.672-0.28-0.983h-0.016c-0.08,0.32-0.168,0.647-0.272,0.976l-0.528,1.56H19.818z"
				/>
			<path fill="#D60B52" d="M22.075,24.149c0.353-0.071,0.855-0.111,1.336-0.111c0.743,0,1.223,0.136,1.559,0.439
				c0.272,0.24,0.424,0.607,0.424,1.023c0,0.712-0.447,1.184-1.016,1.375V26.9c0.416,0.144,0.664,0.527,0.792,1.087
				c0.176,0.752,0.304,1.271,0.416,1.479h-0.72c-0.088-0.152-0.208-0.615-0.36-1.287c-0.16-0.744-0.447-1.023-1.079-1.048h-0.655
				v2.335h-0.696V24.149z M22.771,26.604h0.711c0.744,0,1.216-0.408,1.216-1.023c0-0.695-0.504-1-1.239-1.008
				c-0.336,0-0.576,0.032-0.688,0.064V26.604z"/>
		</g>
		<rect x="2.484" y="31.912" fill="#D60B52"  a:adobe-blending-mode="normal" width="33.031" height="0.917"/>
	</g>
</g>
</svg>
