<?xml version="1.0" encoding="utf-8"?>
<!-- Generator: Adobe Illustrator 17.0.0, SVG Export Plug-In . SVG Version: 6.00 Build 0)  -->
<!DOCTYPE svg PUBLIC "-//W3C//DTD SVG 1.1//EN" "http://www.w3.org/Graphics/SVG/1.1/DTD/svg11.dtd" [
	<!ENTITY ns_flows "http://ns.adobe.com/Flows/1.0/">
	<!ENTITY ns_extend "http://ns.adobe.com/Extensibility/1.0/">
	<!ENTITY ns_ai "http://ns.adobe.com/AdobeIllustrator/10.0/">
	<!ENTITY ns_graphs "http://ns.adobe.com/Graphs/1.0/">
]>
<svg version="1.1" id="Warstwa_1" xmlns:x="&ns_extend;" xmlns:i="&ns_ai;" xmlns:graph="&ns_graphs;"
	 xmlns="http://www.w3.org/2000/svg" xmlns:xlink="http://www.w3.org/1999/xlink" xmlns:a="http://ns.adobe.com/AdobeSVGViewerExtensions/3.0/"
	 x="0px" y="0px" width="38px" height="40.775px" viewBox="0 0 38 40.775" enable-background="new 0 0 38 40.775"
	 xml:space="preserve">
<g id="ZIP">
	<g>
		<g>
			<path fill="#FFFFFF" d="M5,40.525c-2.75,0-2.75-1.59-2.75-2.75V13.162h33.5v24.613c0,1.16,0,2.75-2.75,2.75H5z"/>
			<path fill="#EDEDED" d="M35.5,13.412v24.363c0,1.172,0,2.5-2.5,2.5H5c-2.5,0-2.5-1.328-2.5-2.5V13.412H35.5 M36,12.912H2v24.863
				c0,1.157,0,3,3,3h28c3,0,3-1.843,3-3V12.912L36,12.912z"/>
		</g>
		<path fill="#2388CE" d="M2,4c0-2.157,0-4,3-4l18,0l13,10v3.863H2V4z"/>
		<path opacity="0.5" fill="#515151" d="M23.25,9.578C22.539,8.99,22.794,0,22.794,0l13,10C35.794,10,23.961,10.167,23.25,9.578z"/>
		<path fill="#009FE3" d="M23.794,9c-0.711-0.588-1-9-1-9l13,10C35.794,10,24.505,9.588,23.794,9z"/>
		<linearGradient id="SVGID_1_" gradientUnits="userSpaceOnUse" x1="0" y1="26.849" x2="38" y2="26.849">
			<stop  offset="0" style="stop-color:#235BAC"/>
			<stop  offset="0.06" style="stop-color:#1C78E2"/>
			<stop  offset="0.09" style="stop-color:#235BAC"/>
			<stop  offset="0.5" style="stop-color:#2D72D5"/>
			<stop  offset="0.91" style="stop-color:#235BAC"/>
			<stop  offset="0.96" style="stop-color:#1C78E2"/>
			<stop  offset="1" style="stop-color:#235BAC"/>
			<a:midPointStop  offset="0" style="stop-color:#235BAC"/>
			<a:midPointStop  offset="0.5" style="stop-color:#235BAC"/>
			<a:midPointStop  offset="0.06" style="stop-color:#1C78E2"/>
			<a:midPointStop  offset="0.5" style="stop-color:#1C78E2"/>
			<a:midPointStop  offset="0.09" style="stop-color:#235BAC"/>
			<a:midPointStop  offset="0.5" style="stop-color:#235BAC"/>
			<a:midPointStop  offset="0.5" style="stop-color:#2D72D5"/>
			<a:midPointStop  offset="0.5" style="stop-color:#2D72D5"/>
			<a:midPointStop  offset="0.91" style="stop-color:#235BAC"/>
			<a:midPointStop  offset="0.5" style="stop-color:#235BAC"/>
			<a:midPointStop  offset="0.96" style="stop-color:#1C78E2"/>
			<a:midPointStop  offset="0.5" style="stop-color:#1C78E2"/>
			<a:midPointStop  offset="1" style="stop-color:#235BAC"/>
		</linearGradient>
		<rect x="0" y="21.787" fill="url(#SVGID_1_)" width="38" height="10.125"/>
		<g>
			<path fill="#FFFFFF" d="M13.944,29.058l2.991-4.373v-0.024H14.2v-0.583h3.638v0.424l-2.975,4.357v0.023h3.015v0.584h-3.934
				V29.058z"/>
			<path fill="#FFFFFF" d="M19.431,24.078v5.389h-0.696v-5.389H19.431z"/>
			<path fill="#FFFFFF" d="M20.647,24.141c0.336-0.056,0.775-0.104,1.336-0.104c0.688,0,1.19,0.159,1.511,0.447
				c0.296,0.256,0.472,0.647,0.472,1.128c0,0.487-0.144,0.871-0.416,1.151c-0.367,0.392-0.967,0.591-1.646,0.591
				c-0.208,0-0.4-0.008-0.56-0.048v2.159h-0.696V24.141z M21.344,26.74c0.151,0.04,0.344,0.056,0.575,0.056
				c0.84,0,1.352-0.407,1.352-1.151c0-0.711-0.504-1.055-1.271-1.055c-0.304,0-0.536,0.023-0.655,0.056V26.74z"/>
		</g>
		<rect x="2.484" y="31.912" fill="#DADADA" width="33.031" height="0.917"/>
	</g>
	<g  a:adobe-blending-mode="hue">
		<g  a:adobe-blending-mode="normal">
			<path fill="#662483" d="M5,40.525c-2.75,0-2.75-1.59-2.75-2.75V13.162h33.5v24.613c0,1.16,0,2.75-2.75,2.75H5z"/>
			<path fill="#662483" d="M35.5,13.412v24.363c0,1.172,0,2.5-2.5,2.5H5c-2.5,0-2.5-1.328-2.5-2.5V13.412H35.5 M36,12.912H2v24.863
				c0,1.157,0,3,3,3h28c3,0,3-1.843,3-3V12.912L36,12.912z"/>
		</g>
		<path fill="#662483"  a:adobe-blending-mode="normal" d="M2,4c0-2.157,0-4,3-4l18,0l13,10v3.863H2V4z"/>
		<path fill="#662483"  a:adobe-blending-mode="normal" d="M23.25,9.578C22.539,8.99,22.794,0,22.794,0l13,10
			C35.794,10,23.961,10.167,23.25,9.578z"/>
		<path fill="#662483"  a:adobe-blending-mode="normal" d="M23.794,9c-0.711-0.588-1-9-1-9l13,10C35.794,10,24.505,9.588,23.794,9z"
			/>
		<rect x="0" y="21.787" fill="#662483"  a:adobe-blending-mode="normal" width="38" height="10.125"/>
		<g  a:adobe-blending-mode="normal">
			<path fill="#662483" d="M13.944,29.058l2.991-4.373v-0.024H14.2v-0.583h3.638v0.424l-2.975,4.357v0.023h3.015v0.584h-3.934
				V29.058z"/>
			<path fill="#662483" d="M19.431,24.078v5.389h-0.696v-5.389H19.431z"/>
			<path fill="#662483" d="M20.647,24.141c0.336-0.056,0.775-0.104,1.336-0.104c0.688,0,1.19,0.159,1.511,0.447
				c0.296,0.256,0.472,0.647,0.472,1.128c0,0.487-0.144,0.871-0.416,1.151c-0.367,0.392-0.967,0.591-1.646,0.591
				c-0.208,0-0.4-0.008-0.56-0.048v2.159h-0.696V24.141z M21.344,26.74c0.151,0.04,0.344,0.056,0.575,0.056
				c0.84,0,1.352-0.407,1.352-1.151c0-0.711-0.504-1.055-1.271-1.055c-0.304,0-0.536,0.023-0.655,0.056V26.74z"/>
		</g>
		<rect x="2.484" y="31.912" fill="#662483"  a:adobe-blending-mode="normal" width="33.031" height="0.917"/>
	</g>
</g>
</svg>
