<svg xmlns="http://www.w3.org/2000/svg" width="52" height="56" viewBox="0 0 52 56"><path fill="#444" d="M45.5 38q0-1.25-.875-2.125l-6.5-6.5Q37.25 28.5 36 28.5q-1.313 0-2.25 1 .094.094.594.578t.672.672.469.594.406.797T36 33q0 1.25-.875 2.125T33 36q-.469 0-.859-.109t-.797-.406-.594-.469-.672-.672-.578-.594q-1.031.969-1.031 2.281 0 1.25.875 2.125l6.437 6.469q.844.844 2.125.844 1.25 0 2.125-.812l4.594-4.563q.875-.875.875-2.094zM23.531 15.969q0-1.25-.875-2.125l-6.437-6.469q-.875-.875-2.125-.875-1.219 0-2.125.844l-4.594 4.563q-.875.875-.875 2.094 0 1.25.875 2.125l6.5 6.5q.844.844 2.125.844 1.313 0 2.25-.969-.094-.094-.594-.578t-.672-.672-.469-.594-.406-.797-.109-.859q0-1.25.875-2.125T19 16.001q.469 0 .859.109t.797.406.594.469.672.672.578.594q1.031-.969 1.031-2.281zM51.5 38q0 3.75-2.656 6.344l-4.594 4.563q-2.594 2.594-6.344 2.594-3.781 0-6.375-2.656l-6.437-6.469Q22.5 39.782 22.5 36.032q0-3.844 2.75-6.531l-2.75-2.75q-2.688 2.75-6.5 2.75-3.75 0-6.375-2.625l-6.5-6.5Q.5 17.751.5 14.001t2.656-6.344L7.75 3.094Q10.344.5 14.094.5q3.781 0 6.375 2.656l6.437 6.469q2.594 2.594 2.594 6.344 0 3.844-2.75 6.531l2.75 2.75q2.688-2.75 6.5-2.75 3.75 0 6.375 2.625l6.5 6.5Q51.5 34.25 51.5 38z"/></svg>