<svg xmlns="http://www.w3.org/2000/svg" width="144" height="32" viewBox="0 0 144 32"><path fill="none" stroke="#FFF" stroke-linecap="round" d="M98.5 7.5h11M98.5 3.5h10M98.5 11.5h10"/><circle fill="#FFF" cx="104.313" cy="7.5" r="1.5"/><circle fill="#FFF" cx="108.479" cy="3.583" r="1.5"/><circle fill="#FFF" cx="108.479" cy="11.5" r="1.5"/><path fill="#333" stroke="#FFF" stroke-linejoin="round" d="M83 21h10v6H83z"/><radialGradient id="a" cx="-502.11" cy="67.884" r=".5" gradientTransform="matrix(14 0 0 -10 7117.54 686.84)" gradientUnits="userSpaceOnUse"><stop offset="0" stop-color="#fff"/><stop offset="1" stop-color="#f2f2f2" stop-opacity=".2"/></radialGradient><path fill="url(#a)" d="M81 8c0-2.761 3.134-5 7-5s7 2.239 7 5-3.134 5-7 5-7-2.238-7-5z"/><path fill="#333" stroke="#FFF" stroke-linecap="round" stroke-linejoin="round" d="M83 5h10v6H83z"/><g><g fill="#FFF"><path d="M73.795 4.205A4.199 4.199 0 0 1 72 12.2a4.2 4.2 0 0 1-1.795-7.995l-1.33-1.33A5.998 5.998 0 0 0 66 8a6 6 0 1 0 12 0 5.998 5.998 0 0 0-2.875-5.125l-1.33 1.33z"/><path d="M71 2h-5l5 5V2z"/></g><g fill="#A8A8B7"><path d="M73.795 20.205A4.199 4.199 0 0 1 72 28.2a4.2 4.2 0 0 1-1.795-7.995l-1.33-1.33A5.998 5.998 0 0 0 66 24a6 6 0 1 0 12 0 5.998 5.998 0 0 0-2.875-5.125l-1.33 1.33z"/><path d="M71 18h-5l5 5v-5z"/></g></g><g><text transform="translate(51 27)" fill="#FFF" font-family="'ArialMT'" font-size="10">cc</text><path fill="none" stroke="#FFF" stroke-linejoin="round" d="M50.262 3.081h11.477v9.837H50.262z"/><path fill="none" stroke="#FFF" stroke-linecap="round" d="M60 6.447c-4-1.125-4 4.5 0 3M55 6.447c-4-1.125-4 4.5 0 3"/><path fill="none" d="M49 14V2h14"/></g><g><g fill="#FFF"><path d="M17.542 5H22v6.063h-4.5c-.229 0-.5-.187-.5-.5V5.542c0-.259.209-.542.542-.542z"/><path d="M21 5s2.848-2.125 3.278-2.458.722-.354.722 0v10.896c0 .333-.301.341-.762.003L21 11.063V5z"/></g><path fill="#FFF" d="M17.542 21.013H22v6.063h-4.5a.505.505 0 0 1-.5-.5v-5.021c0-.258.209-.542.542-.542z"/><path fill="#FFF" d="M21 21.013s2.848-2.125 3.278-2.458c.43-.333.722-.354.722 0v10.896c0 .333-.301.341-.762.003L21 27.075v-6.062z"/><path fill="none" stroke="#FFF" stroke-linecap="round" d="M26 21.008s2.041-.312 1.999 2.992C27.958 27.304 26 26.992 26 26.992"/></g><g><linearGradient id="b" gradientUnits="userSpaceOnUse" x1="3" y1="8.513" x2="13.42" y2="8.513"><stop offset="0" stop-color="#fff"/><stop offset="1" stop-color="#fff"/></linearGradient><path fill="url(#b)" d="M12.813 9.093L4.3 13.35c-.612.288-1.3.338-1.3-.35V4c0-.594.656-.635 1.275-.362l8.523 4.261c.827.495.827.726.015 1.194z"/><g fill="#FFF"><path d="M3.469 18h2.047c.264 0 .484.219.484.469V29.5c0 .282-.201.5-.484.5H3.468C3.186 30 3 29.765 3 29.5V18.469A.48.48 0 0 1 3.469 18zM10.469 18h2.047c.265 0 .484.219.484.469V29.5c0 .282-.201.5-.484.5h-2.048c-.282 0-.468-.235-.468-.5V18.469a.48.48 0 0 1 .469-.469z"/></g></g><g fill="#FFF"><path d="M34 2v5l5-5zM34 14h5l-5-5v5zM46 2h-5l5 5V2zM46 14h-5l5-5v5z"/><g><path d="M42 22h4l-4-4v4zM38 22v-4l-4 4h4zM38 26h-4l4 4v-4zM42 26v4l4-4h-4z"/></g></g><g><path fill="#FFF" d="M115.604 3.104h9.146c.27 0 .562.293.562.584v8.75a.56.56 0 0 1-.562.562h-9.146c-.229 0-.5-.227-.5-.562v-8.75c0-.313.209-.584.5-.584z"/></g><g><path fill="#FFF" d="M135.235 6.152a2 2 0 1 1 1.53 3.696 2 2 0 0 1-1.53-3.696zm-1.962-4.734L136 4.005l2.727-2.588.098 3.758 3.758.098L139.995 8l2.588 2.726-3.758.098-.098 3.758L136 11.995l-2.727 2.588-.098-3.758-3.758-.098L132.005 8l-2.588-2.727 3.758-.098.098-3.757z"/></g></svg>