<svg xmlns="http://www.w3.org/2000/svg" width="56" height="56" viewBox="0 0 56 56"><path fill="#444" d="M44 29v10q0 3.719-2.641 6.359T35 48H9q-3.719 0-6.359-2.641T0 39V13q0-3.719 2.641-6.359T9 4h22q.438 0 .719.281T32 5v2q0 .438-.281.719T31 8H9Q6.938 8 5.469 9.469T4 13v26q0 2.062 1.469 3.531T9 44h26q2.062 0 3.531-1.469T40 39V29q0-.438.281-.719T41 28h2q.438 0 .719.281T44 29zM56 2v16q0 .812-.594 1.406T54 20t-1.406-.594l-5.5-5.5-20.375 20.375q-.312.312-.719.312t-.719-.312l-3.563-3.563q-.312-.312-.312-.719t.312-.719L42.093 8.905l-5.5-5.5q-.594-.594-.594-1.406t.594-1.406 1.406-.594h16q.812 0 1.406.594t.594 1.406z"/></svg>